<svg width="48" height="32" viewBox="0 0 48 32" fill="none" xmlns="http://www.w3.org/2000/svg">
<rect width="48" height="32" rx="4" fill="#282828"/>
<g clip-path="url(#clip0_440_3708)">
<path d="M12 6.63084V25.3692C12 26.2661 12.7351 27 13.6335 27H24.8471C33.3247 27 37 22.2624 37 15.9755C37 9.72128 33.3247 5 24.8471 5H13.6335C12.7351 5 12 5.73388 12 6.63084Z" fill="white"/>
<path d="M19.5056 9.59891V23.4447H25.5412C31.0215 23.4447 33.3981 20.3543 33.3981 15.9836C33.3981 11.8005 31.0215 8.55518 25.5412 8.55518H20.551C19.9711 8.55518 19.5056 9.02812 19.5056 9.59891Z" fill="#CC0066"/>
<path d="M24.8469 25.5078H15.0952C14.2295 25.5078 13.5271 24.8065 13.5271 23.9422V8.06597C13.5271 7.20163 14.2295 6.50037 15.0952 6.50037H24.8469C34.1004 6.50037 35.4807 12.4448 35.4807 15.9837C35.4807 22.1238 31.6993 25.5078 24.8469 25.5078ZM15.0952 7.02223C14.5153 7.02223 14.0498 7.48702 14.0498 8.06597V23.9422C14.0498 24.5211 14.5153 24.9859 15.0952 24.9859H24.8469C31.3644 24.9859 34.958 21.7895 34.958 15.9837C34.958 8.18828 28.6202 7.02223 24.8469 7.02223H15.0952Z" fill="#282828"/>
<path d="M21.6295 14.1163C21.8418 14.1163 22.0379 14.1489 22.2257 14.2142C22.4135 14.2794 22.5687 14.3854 22.7076 14.5159C22.8382 14.6545 22.9444 14.8257 23.0261 15.0214C23.0996 15.2253 23.1404 15.4618 23.1404 15.739C23.1404 15.9836 23.1078 16.2038 23.0506 16.4076C22.9853 16.6115 22.8954 16.7909 22.7729 16.9377C22.6504 17.0844 22.4952 17.1986 22.3074 17.2883C22.1195 17.3698 21.899 17.4188 21.6458 17.4188H20.2166V14.1082H21.6295V14.1163ZM21.5805 16.8153C21.6867 16.8153 21.7847 16.799 21.8908 16.7664C21.9888 16.7338 22.0787 16.6767 22.1522 16.5952C22.2257 16.5136 22.291 16.4158 22.34 16.2853C22.389 16.1549 22.4135 16.0081 22.4135 15.8205C22.4135 15.6575 22.3972 15.5025 22.3645 15.3721C22.3319 15.2416 22.2747 15.1193 22.2012 15.0296C22.1277 14.9399 22.0297 14.8583 21.9072 14.8094C21.7847 14.7605 21.6377 14.736 21.458 14.736H20.9353V16.8235H21.5805V16.8153Z" fill="white"/>
<path d="M26.0887 14.1163V14.7279H24.3409V15.4373H25.9498V15.9999H24.3409V16.8072H26.1295V17.4188H23.614V14.1082H26.0887V14.1163Z" fill="white"/>
<path d="M28.5878 14.1163L29.8292 17.4269H29.0696L28.8164 16.6931H27.575L27.3137 17.4269H26.5786L27.8282 14.1163H28.5878ZM28.6286 16.1467L28.2121 14.9318H28.2039L27.771 16.1467H28.6286Z" fill="white"/>
<path d="M31.0138 14.1163V16.8154H32.6309V17.4269H30.2869V14.1163H31.0138Z" fill="white"/>
<path d="M16.778 17.2966C17.6215 17.2966 18.3053 16.6139 18.3053 15.7718C18.3053 14.9296 17.6215 14.2469 16.778 14.2469C15.9345 14.2469 15.2507 14.9296 15.2507 15.7718C15.2507 16.6139 15.9345 17.2966 16.778 17.2966Z" fill="#282828"/>
<path d="M17.9295 23.4446C16.6472 23.4446 15.6182 22.409 15.6182 21.137V19.3349C15.6182 18.6989 16.1327 18.177 16.7779 18.177C17.415 18.177 17.9377 18.6907 17.9377 19.3349V23.4446H17.9295Z" fill="#282828"/>
</g>
<defs>
<clipPath id="clip0_440_3708">
<rect width="25" height="22" fill="white" transform="translate(12 5)"/>
</clipPath>
</defs>
</svg>
