<svg width="18" height="18" viewBox="0 0 18 18" fill="none" xmlns="http://www.w3.org/2000/svg">
<path d="M8.29995 0.0527337C8.05737 0.123046 7.89917 0.214452 7.68823 0.418359C7.35073 0.741796 7.24175 1.05117 7.24175 1.67695V2.07422H6.46831C5.55777 2.07422 5.43472 2.10234 5.11128 2.39766C4.79136 2.69297 4.67534 3.00586 4.67534 3.58594V3.90234H3.97222C3.46245 3.90234 3.18823 3.91641 2.99487 3.95859C1.73628 4.21875 0.74839 5.21367 0.512843 6.46523C0.446046 6.80273 0.439015 7.66406 0.495265 8.01562C0.649952 9 1.31441 9.88594 2.23902 10.35C2.37612 10.4168 2.59058 10.5012 2.71362 10.5328C2.83667 10.568 2.94566 10.6031 2.95972 10.6137C2.97027 10.6242 3.023 10.8211 3.07573 11.0461C3.12495 11.2711 3.20581 11.5699 3.25152 11.7105C3.35698 12.0164 3.35698 12.0129 3.27261 12.041C3.22691 12.0551 3.12847 12.0094 2.96675 11.9004C2.54487 11.6121 2.10542 11.4187 1.65894 11.3344C0.878468 11.1867 0.720265 11.3484 0.720265 12.2871C0.723781 12.9094 0.783546 13.1836 1.07886 13.8762C1.09292 13.9113 1.02964 13.9219 0.822218 13.9219C0.498781 13.9219 0.308937 13.9922 0.164796 14.1645C0.0136243 14.3437 -0.00746944 14.4773 0.00659306 15.2051C0.0206556 15.9891 0.0487806 16.084 0.330031 16.2562C0.474171 16.3477 0.540968 16.3617 0.808156 16.3758L1.12105 16.3898L1.13159 17.093L1.14214 17.7961L1.25816 17.898L1.37066 18H3.30425H5.23784L5.35034 17.898L5.46636 17.7961L5.47691 17.0895L5.48745 16.3828H9.00308H12.5152V17.0719V17.7609L12.6347 17.8805L12.7542 18H14.6914H16.6285L16.741 17.898L16.857 17.7961L16.8675 17.093L16.8781 16.3898L17.191 16.3758C17.4582 16.3617 17.525 16.3477 17.6691 16.2562C17.9503 16.084 17.9785 15.9891 17.9925 15.2051C18.0066 14.4773 17.9855 14.3437 17.8343 14.1645C17.6375 13.9289 17.5882 13.9219 16.2523 13.9219C15.5878 13.9219 15.0464 13.9148 15.0464 13.9043C15.0464 13.8937 15.1308 13.7848 15.2328 13.6652C15.3312 13.5457 15.4683 13.3629 15.5351 13.2645L15.6511 13.0781H15.957C16.6847 13.0746 17.0785 12.948 17.423 12.607C17.7675 12.259 17.9433 11.7352 17.866 11.2852C17.7746 10.7719 17.4546 10.3465 16.9976 10.1215L16.7515 10.002L15.616 9.98437C14.9937 9.97383 14.4839 9.95625 14.4839 9.93867C14.4839 9.92461 14.4839 9.62227 14.4839 9.26719V8.62383L15.6089 7.01719C16.2277 6.13125 16.7515 5.37891 16.7691 5.34375C16.8359 5.21719 16.8113 5.0625 16.7023 4.95352L16.6003 4.85156L14.9164 4.84805L13.2359 4.84453L12.9652 4.47891L12.691 4.11328V3.69141C12.691 2.99883 12.5925 2.70703 12.255 2.39766C11.9316 2.10234 11.8085 2.07422 10.898 2.07422H10.1246V1.67695C10.1246 1.02656 10.0085 0.724218 9.63237 0.372656C9.49878 0.249609 9.35112 0.154687 9.22105 0.105468C8.95737 0.00351491 8.55308 -0.0175788 8.29995 0.0527337ZM8.91167 0.741796C9.09448 0.794531 9.33003 1.03008 9.38277 1.21289C9.40386 1.29023 9.42144 1.5082 9.42144 1.69453V2.03906H8.68316H7.94487V1.69453C7.94487 1.25156 7.98355 1.11797 8.17339 0.928124C8.38433 0.717187 8.61284 0.660937 8.91167 0.741796ZM11.7066 2.8582C11.9175 2.99883 11.9703 3.13242 11.9703 3.5332V3.88477L11.0281 3.90234L10.0824 3.91992L9.998 4.01836C9.87847 4.15898 9.8855 4.32773 10.0156 4.47187L10.1175 4.58789L11.1546 4.60547L12.1917 4.62305L12.3078 4.76367C12.7191 5.27344 13.1796 6.13828 13.4082 6.83789C13.5523 7.27031 13.6894 7.90664 13.7457 8.38477C13.7843 8.73281 13.7949 9.70312 13.7597 9.87539L13.7386 9.98437H11.9527C10.216 9.98437 10.1667 9.98789 10.0789 10.0547C9.96987 10.1391 9.92769 10.3184 9.87847 10.8914C9.78355 11.9953 10.0859 12.9797 10.7328 13.6969C10.8242 13.7988 10.898 13.8902 10.898 13.9008C10.898 13.9113 9.65698 13.9219 8.13823 13.9219C6.61948 13.9219 5.37847 13.9148 5.37847 13.9043C5.37847 13.8937 5.41714 13.7883 5.46636 13.6652C5.69136 13.1203 5.80034 12.4137 5.73706 11.9566C5.6562 11.3766 5.53667 11.257 5.06558 11.2992C4.75269 11.3238 4.53823 11.3801 4.20776 11.5137C4.07417 11.5664 3.96167 11.6016 3.95112 11.5945C3.91948 11.5629 3.72612 10.7613 3.67339 10.4414C3.59253 9.98086 3.56441 8.89805 3.61714 8.4375C3.77886 7.04531 4.23589 5.86055 5.0023 4.84102L5.18159 4.60547H6.18003C7.04839 4.60547 7.19253 4.59844 7.27691 4.5457C7.46675 4.43672 7.50894 4.18359 7.36831 4.01836L7.28394 3.91992L6.33823 3.90234L5.39605 3.88477V3.5332C5.39605 3.13242 5.44878 2.99883 5.65972 2.8582L5.77573 2.77734H8.68316H11.5906L11.7066 2.8582ZM4.26401 4.64766C4.24995 4.67227 4.17964 4.78477 4.10581 4.89375C3.73667 5.44922 3.38159 6.25078 3.1812 6.98203C2.9773 7.72734 2.9105 8.19141 2.89292 9.05977C2.88237 9.49219 2.86831 9.84375 2.86128 9.84375C2.85073 9.84375 2.74878 9.80508 2.63277 9.75586C2.14058 9.55547 1.67651 9.1125 1.41987 8.5957C1.21597 8.18086 1.15972 7.90664 1.15972 7.28437C1.15972 6.52852 1.27925 6.10312 1.63784 5.60391C1.9437 5.17148 2.54839 4.7707 3.06519 4.6582C3.3605 4.59492 4.30269 4.58789 4.26401 4.64766ZM15.7496 5.57227C15.7496 5.60742 14.375 7.54102 14.3539 7.53398C14.3433 7.53047 14.2906 7.35469 14.2343 7.14727C14.1113 6.67266 13.9531 6.21914 13.7808 5.84297L13.6437 5.55469H14.6984C15.275 5.55469 15.7496 5.56172 15.7496 5.57227ZM15.3417 10.7648C15.3839 10.9266 15.3628 11.7141 15.3066 11.9812C15.173 12.6387 14.8355 13.166 14.1921 13.718L13.9531 13.9219H12.9511H11.9492L11.5203 13.4895C10.9718 12.941 10.7574 12.5789 10.6343 11.9953C10.5816 11.7598 10.5605 10.8527 10.6027 10.7437C10.6238 10.6945 10.8628 10.6875 12.9722 10.6875H15.3207L15.3417 10.7648ZM16.6812 10.7543C17.0433 10.9195 17.2542 11.3414 17.1558 11.707C17.0468 12.1148 16.7585 12.3258 16.2593 12.3609L15.95 12.3855L15.9746 12.266C16.0484 11.8969 16.0695 11.6297 16.0589 11.1832L16.0484 10.6875H16.2945C16.4562 10.6875 16.5898 10.7121 16.6812 10.7543ZM1.85581 12.1254C2.13003 12.2203 2.72066 12.5402 2.69956 12.5859C2.69253 12.5965 2.62925 12.723 2.55542 12.8672C2.40777 13.166 2.34097 13.4648 2.36206 13.7355L2.37964 13.9219H2.14058H1.90503L1.76441 13.6477C1.56401 13.2645 1.44097 12.8215 1.41636 12.382L1.39526 12.0234H1.47964C1.52534 12.0234 1.69761 12.0691 1.85581 12.1254ZM5.048 12.1113C5.11831 12.3891 4.8898 13.3418 4.66128 13.7215L4.5523 13.9043L3.82456 13.9148L3.09683 13.9219L3.07222 13.7637C3.04761 13.5879 3.09683 13.3523 3.19878 13.1449C3.38511 12.7793 4.09175 12.2766 4.67534 12.0902C4.94956 12.0023 5.01987 12.0059 5.048 12.1113ZM17.2964 15.1523V15.6797H8.99956H0.702687V15.1523V14.625H8.99956H17.2964V15.1523ZM4.78081 16.8398V17.2969H3.30425H1.82769V16.8398V16.3828H3.30425H4.78081V16.8398ZM16.1714 16.8398V17.2969H14.6949H13.2183V16.8398V16.3828H14.6949H16.1714V16.8398Z" fill="black"/>
<path d="M8.43359 4.0043C8.29297 4.14492 8.29297 4.31719 8.43359 4.47188C8.51797 4.5668 8.56016 4.58789 8.6832 4.58789C8.80625 4.58789 8.84844 4.5668 8.93281 4.47188C9.07344 4.31719 9.07344 4.14492 8.93281 4.0043C8.85195 3.92344 8.79922 3.90234 8.6832 3.90234C8.56719 3.90234 8.51445 3.92344 8.43359 4.0043Z" fill="black"/>
<path d="M5.58965 5.46685C5.47012 5.53013 5.16426 6.02935 4.95684 6.49693C4.62988 7.22818 4.44355 8.03326 4.40488 8.86646L4.38379 9.3481L4.49277 9.45357C4.67207 9.63287 4.9709 9.58365 5.05527 9.35865C5.07637 9.30591 5.10098 9.0774 5.11152 8.8524C5.16074 7.8856 5.46309 6.90123 5.95176 6.11724C6.04316 5.9731 6.11699 5.81841 6.11699 5.77623C6.11699 5.50201 5.82871 5.33326 5.58965 5.46685Z" fill="black"/>
</svg>
