<svg width="18" height="19" viewBox="0 0 18 19" fill="none" xmlns="http://www.w3.org/2000/svg">
<path d="M6.5131 0.262315C5.41318 0.438753 4.35079 1.11447 3.70886 2.04922C3.39728 2.50346 3.1345 3.17167 3.04065 3.75354C2.87547 4.77463 3.13074 5.92711 3.70886 6.77176C4.36206 7.72153 5.41693 8.38974 6.55064 8.55867C8.84809 8.90779 10.9916 7.33486 11.337 5.04867C11.611 3.2505 10.7063 1.47861 9.09961 0.671502C8.27373 0.258561 7.41031 0.123417 6.5131 0.262315ZM7.90208 1.49363C8.68667 1.70761 9.28356 2.13556 9.70401 2.78501C10.0381 3.29555 10.1733 3.7573 10.1733 4.41049C10.1733 5.06369 10.0381 5.52543 9.70401 6.03598C8.81055 7.40994 7.00863 7.81538 5.6234 6.96322C4.775 6.44141 4.2607 5.58174 4.19688 4.57567C4.09928 3.07407 5.1504 1.7489 6.68203 1.44858C6.93355 1.39978 7.64681 1.42606 7.90208 1.49363Z" fill="black"/>
<path d="M15.2037 5.08627C15.016 5.18012 14.9184 5.31151 14.8958 5.49921C14.8545 5.80329 14.8921 5.8671 15.4702 6.49778L16.0145 7.09466L13.8935 7.11343C11.8251 7.1322 11.7725 7.13596 11.6711 7.21104C11.4722 7.35744 11.4121 7.47757 11.4121 7.71407C11.4121 7.95058 11.4722 8.07071 11.6711 8.21711C11.7725 8.29219 11.8251 8.29595 13.8935 8.31472L16.0145 8.33349L15.4702 8.93037C14.8921 9.56105 14.8545 9.62486 14.8958 9.92894C14.9184 10.1166 15.0197 10.248 15.2074 10.3419C15.3914 10.432 15.534 10.4357 15.718 10.3494C15.8831 10.2743 17.8615 8.14203 17.9478 7.95058C17.9779 7.88301 18.0004 7.77789 18.0004 7.71407C18.0004 7.65026 17.9779 7.54514 17.9478 7.47757C17.8765 7.31615 15.8906 5.16135 15.7367 5.07876C15.5753 4.99242 15.3838 4.99617 15.2037 5.08627Z" fill="black"/>
<path d="M4.57943 9.85763C3.3819 10.0153 2.30825 10.5634 1.45234 11.4456C0.742831 12.1776 0.27358 13.0861 0.0708641 14.1184C-0.0229861 14.5839 -0.0229861 15.4886 0.0671101 15.819C0.239794 16.4534 0.453773 16.8213 0.91927 17.2868C1.38477 17.7523 1.7489 17.9625 2.38709 18.139C2.60106 18.199 2.81504 18.2065 4.26784 18.2065C5.8633 18.2065 5.90834 18.2028 6.0097 18.1277C6.20867 17.9813 6.26873 17.8612 6.26873 17.6247C6.26873 17.3882 6.20867 17.268 6.0097 17.1216C5.9121 17.0466 5.84828 17.0428 4.32415 17.0203C3.17918 17.0053 2.69867 16.9865 2.5898 16.9527C1.90282 16.7275 1.39603 16.1869 1.23461 15.4961C1.06192 14.7679 1.35098 13.5929 1.89531 12.7782C2.09803 12.4742 2.6311 11.9449 2.94268 11.7346C3.28429 11.5019 3.82487 11.2541 4.24907 11.1377L4.61697 11.0364H7.18846H9.75996L10.1354 11.1415C10.5858 11.2654 11.2428 11.5807 11.5844 11.8397C12.5192 12.5493 13.116 13.6792 13.1799 14.8467C13.2061 15.3084 13.1498 15.62 12.9659 15.9804C12.7519 16.4046 12.2826 16.7913 11.7871 16.9527C11.6783 16.9865 11.1977 17.0053 10.0528 17.0203C8.52864 17.0428 8.46482 17.0466 8.36722 17.1216C8.16826 17.268 8.10819 17.3882 8.10819 17.6247C8.10819 17.8612 8.16826 17.9813 8.36722 18.1277C8.46858 18.2028 8.51363 18.2065 10.1091 18.2065C11.5619 18.2065 11.7759 18.199 11.9898 18.139C12.628 17.9625 12.9922 17.7523 13.4577 17.2868C13.9231 16.8213 14.1371 16.4572 14.3098 15.819C14.4112 15.4549 14.3999 14.5426 14.2873 14.0208C14.0658 12.9847 13.6041 12.1363 12.842 11.3705C12.0874 10.6122 11.2653 10.1617 10.1992 9.92145C9.8463 9.84262 9.7562 9.83886 7.33862 9.83135C5.96465 9.8276 4.72583 9.83886 4.57943 9.85763Z" fill="black"/>
</svg>
