<svg xmlns="http://www.w3.org/2000/svg">
<symbol id="logo" width="24" height="24" viewBox="0 0 24 24" fill="none" xmlns="http://www.w3.org/2000/svg">
<mask id="mask0_319_798" style="mask-type:alpha" maskUnits="userSpaceOnUse" x="0" y="0" width="24" height="24">
<rect width="24" height="24" fill="#D9D9D9"/>
</mask>
<g mask="url(#mask0_319_798)">
<path d="M11 21V13.025C9.93333 13.025 8.90833 12.8207 7.925 12.412C6.94167 12.004 6.075 11.425 5.325 10.675C4.575 9.925 4 9.05833 3.6 8.075C3.2 7.09167 3 6.06667 3 5V3H5C6.05 3 7.06667 3.204 8.05 3.612C9.03333 4.02067 9.9 4.6 10.65 5.35C11.1667 5.86667 11.596 6.43333 11.938 7.05C12.2793 7.66667 12.5417 8.325 12.725 9.025C12.8083 8.90833 12.9 8.796 13 8.688C13.1 8.57933 13.2083 8.46667 13.325 8.35C14.075 7.6 14.9417 7.02067 15.925 6.612C16.9083 6.204 17.9333 6 19 6H21V8C21 9.06667 20.796 10.0917 20.388 11.075C19.9793 12.0583 19.4 12.925 18.65 13.675C17.9 14.425 17.0373 15 16.062 15.4C15.0873 15.8 14.0667 16 13 16V21H11Z" fill="#282828"/>
</g>
</symbol>

<symbol id="search" xmlns="http://www.w3.org/2000/svg" width="24" height="24" viewBox="0 0 24 24">
  <circle cx="11" cy="11" r="6"/>
  <path d="M20 20L17 17" stroke-linecap="round"/>
</symbol>

<symbol id="person" xmlns="http://www.w3.org/2000/svg" width="24" height="24" viewBox="0 0 24 24" fill="none">
  <path d="M19.7274 20.4471C19.2716 19.1713 18.2672 18.0439 16.8701 17.2399C15.4729 16.4358 13.7611 16 12 16C10.2389 16 8.52706 16.4358 7.12991 17.2399C5.73276 18.0439 4.72839 19.1713 4.27259 20.4471"  stroke-linecap="round"/>
  <circle cx="12" cy="8" r="4" stroke-linecap="round"/>
</symbol>

<symbol id="add_person" xmlns="http://www.w3.org/2000/svg" width="24" height="24" viewBox="0 0 24 24" fill="none">
  <circle cx="12" cy="8" r="4" stroke-linecap="round"/>
  <path fill-rule="evenodd" clip-rule="evenodd" d="M15.2759 16C13.8972 15.5613 12.3896 15.4073 10.9067 15.5538C9.26616 15.7157 7.71472 16.2397 6.45048 17.0712C5.18613 17.9028 4.25374 19.0137 3.80174 20.2789C3.70884 20.5389 3.84433 20.825 4.10438 20.9179C4.36442 21.0108 4.65054 20.8754 4.74345 20.6153C5.11048 19.588 5.88515 18.64 7 17.9067C8.11495 17.1734 9.508 16.6967 11.0049 16.5489C11.5548 16.4946 12.1076 16.4858 12.6536 16.521C13.009 16.1974 13.4814 16 14 16L15.2759 16Z" fill="#222222"/>
  <path d="M18 14L18 22" stroke-linecap="round"/>
  <path d="M22 18L14 18" stroke-linecap="round"/>
</symbol>


<symbol id="corb" xmlns="http://www.w3.org/2000/svg" width="24" height="24" viewBox="0 0 24 24" fill="none">
  <path d="M8 12L8 8C8 5.79086 9.79086 4 12 4V4C14.2091 4 16 5.79086 16 8L16 12" stroke-linecap="round"/>
  <path d="M3.69435 12.6678C3.83942 10.9269 3.91196 10.0565 4.48605 9.52824C5.06013 9 5.9336 9 7.68053 9H16.3195C18.0664 9 18.9399 9 19.514 9.52824C20.088 10.0565 20.1606 10.9269 20.3057 12.6678L20.8195 18.8339C20.904 19.8474 20.9462 20.3542 20.6491 20.6771C20.352 21 19.8435 21 18.8264 21H5.1736C4.15655 21 3.64802 21 3.35092 20.6771C3.05382 20.3542 3.09605 19.8474 3.18051 18.8339L3.69435 12.6678Z"/>
</symbol>

<symbol id="cafe" width="18" height="18" viewBox="0 0 18 18" fill="none" xmlns="http://www.w3.org/2000/svg">
<mask id="mask0_171_153" style="mask-type:alpha" maskUnits="userSpaceOnUse" x="0" y="0" width="18" height="18">
<rect width="18" height="18" fill="#D9D9D9"/>
</mask>
<g mask="url(#mask0_171_153)">
<path d="M3 15.75V14.25H15V15.75H3ZM6 12.75C5.175 12.75 4.46875 12.4563 3.88125 11.8687C3.29375 11.2812 3 10.575 3 9.75V2.25H15C15.4125 2.25 15.7656 2.39688 16.0594 2.69063C16.3531 2.98438 16.5 3.3375 16.5 3.75V6C16.5 6.4125 16.3531 6.76562 16.0594 7.05937C15.7656 7.35313 15.4125 7.5 15 7.5H13.5V9.75C13.5 10.575 13.2063 11.2812 12.6187 11.8687C12.0312 12.4563 11.325 12.75 10.5 12.75H6ZM6 11.25H10.5C10.9125 11.25 11.2656 11.1031 11.5594 10.8094C11.8531 10.5156 12 10.1625 12 9.75V3.75H4.5V9.75C4.5 10.1625 4.64688 10.5156 4.94063 10.8094C5.23438 11.1031 5.5875 11.25 6 11.25ZM13.5 6H15V3.75H13.5V6Z" fill="#282828"/>
</g>
</symbol>

<symbol id="plus" width="18" height="18" viewBox="0 0 18 18" fill="none" xmlns="http://www.w3.org/2000/svg">
<mask id="mask0_154_789" style="mask-type:alpha" maskUnits="userSpaceOnUse" x="0" y="0" width="18" height="18">
<rect width="18" height="18" fill="#D9D9D9"/>
</mask>
<g mask="url(#mask0_154_789)">
<path d="M8.25 14.25V9.75H3.75V8.25H8.25V3.75H9.75V8.25H14.25V9.75H9.75V14.25H8.25Z" fill="#282828"/>
</g>
</symbol>

<symbol id="location" width="18" height="18" viewBox="0 0 18 18" fill="none" xmlns="http://www.w3.org/2000/svg">
<mask id="mask0_190_530" style="mask-type:alpha" maskUnits="userSpaceOnUse" x="0" y="0" width="18" height="18">
<rect width="18" height="18" fill="#D9D9D9"/>
</mask>
<g mask="url(#mask0_190_530)">
<path d="M9 9C9.4125 9 9.76563 8.85313 10.0594 8.55938C10.3531 8.26563 10.5 7.9125 10.5 7.5C10.5 7.0875 10.3531 6.73438 10.0594 6.44063C9.76563 6.14687 9.4125 6 9 6C8.5875 6 8.23438 6.14687 7.94063 6.44063C7.64687 6.73438 7.5 7.0875 7.5 7.5C7.5 7.9125 7.64687 8.26563 7.94063 8.55938C8.23438 8.85313 8.5875 9 9 9ZM9 14.5125C10.525 13.1125 11.6562 11.8406 12.3938 10.6969C13.1313 9.55312 13.5 8.5375 13.5 7.65C13.5 6.2875 13.0656 5.17188 12.1969 4.30312C11.3281 3.43438 10.2625 3 9 3C7.7375 3 6.67188 3.43438 5.80312 4.30312C4.93438 5.17188 4.5 6.2875 4.5 7.65C4.5 8.5375 4.86875 9.55312 5.60625 10.6969C6.34375 11.8406 7.475 13.1125 9 14.5125ZM9 16.5C6.9875 14.7875 5.48438 13.1969 4.49063 11.7281C3.49688 10.2594 3 8.9 3 7.65C3 5.775 3.60312 4.28125 4.80938 3.16875C6.01563 2.05625 7.4125 1.5 9 1.5C10.5875 1.5 11.9844 2.05625 13.1906 3.16875C14.3969 4.28125 15 5.775 15 7.65C15 8.9 14.5031 10.2594 13.5094 11.7281C12.5156 13.1969 11.0125 14.7875 9 16.5Z" fill="#282828"/>
</g>
</symbol>

<symbol id="call" width="18" height="18" viewBox="0 0 18 18" fill="none" xmlns="http://www.w3.org/2000/svg">
<mask id="mask0_190_529" style="mask-type:alpha" maskUnits="userSpaceOnUse" x="0" y="0" width="18" height="18">
<rect width="18" height="18" fill="#D9D9D9"/>
</mask>
<g mask="url(#mask0_190_529)">
<path d="M14.9625 15.75C13.35 15.75 11.7781 15.3906 10.2469 14.6719C8.71563 13.9531 7.35938 13.0031 6.17813 11.8219C4.99688 10.6406 4.04688 9.28438 3.32812 7.75313C2.60938 6.22187 2.25 4.65 2.25 3.0375C2.25 2.8125 2.325 2.625 2.475 2.475C2.625 2.325 2.8125 2.25 3.0375 2.25H6.075C6.25 2.25 6.40625 2.30625 6.54375 2.41875C6.68125 2.53125 6.7625 2.675 6.7875 2.85L7.275 5.475C7.3 5.65 7.29688 5.80938 7.26562 5.95312C7.23438 6.09687 7.1625 6.225 7.05 6.3375L5.23125 8.175C5.75625 9.075 6.41563 9.91875 7.20938 10.7063C8.00313 11.4938 8.875 12.175 9.825 12.75L11.5875 10.9875C11.7 10.875 11.8469 10.7906 12.0281 10.7344C12.2094 10.6781 12.3875 10.6625 12.5625 10.6875L15.15 11.2125C15.325 11.25 15.4688 11.3344 15.5812 11.4656C15.6937 11.5969 15.75 11.75 15.75 11.925V14.9625C15.75 15.1875 15.675 15.375 15.525 15.525C15.375 15.675 15.1875 15.75 14.9625 15.75ZM4.51875 6.75L5.75625 5.5125L5.4375 3.75H3.76875C3.83125 4.2625 3.91875 4.76875 4.03125 5.26875C4.14375 5.76875 4.30625 6.2625 4.51875 6.75ZM11.2313 13.4625C11.7188 13.675 12.2156 13.8438 12.7219 13.9688C13.2281 14.0938 13.7375 14.175 14.25 14.2125V12.5625L12.4875 12.2063L11.2313 13.4625Z" fill="#282828"/>
</g>
</symbol>

<symbol id="mail" width="18" height="18" viewBox="0 0 18 18" fill="none" xmlns="http://www.w3.org/2000/svg">
<mask id="mask0_190_528" style="mask-type:alpha" maskUnits="userSpaceOnUse" x="0" y="0" width="18" height="18">
<rect width="18" height="18" fill="#D9D9D9"/>
</mask>
<g mask="url(#mask0_190_528)">
<path d="M3 15C2.5875 15 2.23438 14.8531 1.94063 14.5594C1.64688 14.2656 1.5 13.9125 1.5 13.5V4.5C1.5 4.0875 1.64688 3.73438 1.94063 3.44063C2.23438 3.14688 2.5875 3 3 3H15C15.4125 3 15.7656 3.14688 16.0594 3.44063C16.3531 3.73438 16.5 4.0875 16.5 4.5V13.5C16.5 13.9125 16.3531 14.2656 16.0594 14.5594C15.7656 14.8531 15.4125 15 15 15H3ZM9 9.75L3 6V13.5H15V6L9 9.75ZM9 8.25L15 4.5H3L9 8.25ZM3 6V4.5V13.5V6Z" fill="#282828"/>
</g>
</symbol>

<symbol id="delivery" xmlns="http://www.w3.org/2000/svg" width="18" height="18" viewBox="0 0 18 18" fill="none">
  <mask id="mask0_171_156" style="mask-type:alpha" maskUnits="userSpaceOnUse" x="0" y="0" width="18" height="18">
    <rect width="18" height="18" fill="#D9D9D9"/>
  </mask>
  <g mask="url(#mask0_171_156)">
    <path d="M4.5 15C3.875 15 3.34375 14.7812 2.90625 14.3438C2.46875 13.9062 2.25 13.375 2.25 12.75H0.75V4.5C0.75 4.0875 0.896875 3.73438 1.19063 3.44063C1.48438 3.14688 1.8375 3 2.25 3H12.75V6H15L17.25 9V12.75H15.75C15.75 13.375 15.5312 13.9062 15.0938 14.3438C14.6562 14.7812 14.125 15 13.5 15C12.875 15 12.3438 14.7812 11.9062 14.3438C11.4688 13.9062 11.25 13.375 11.25 12.75H6.75C6.75 13.375 6.53125 13.9062 6.09375 14.3438C5.65625 14.7812 5.125 15 4.5 15ZM4.5 13.5C4.7125 13.5 4.89062 13.4281 5.03438 13.2844C5.17812 13.1406 5.25 12.9625 5.25 12.75C5.25 12.5375 5.17812 12.3594 5.03438 12.2156C4.89062 12.0719 4.7125 12 4.5 12C4.2875 12 4.10938 12.0719 3.96562 12.2156C3.82187 12.3594 3.75 12.5375 3.75 12.75C3.75 12.9625 3.82187 13.1406 3.96562 13.2844C4.10938 13.4281 4.2875 13.5 4.5 13.5ZM2.25 11.25H2.85C3.0625 11.025 3.30625 10.8438 3.58125 10.7063C3.85625 10.5688 4.1625 10.5 4.5 10.5C4.8375 10.5 5.14375 10.5688 5.41875 10.7063C5.69375 10.8438 5.9375 11.025 6.15 11.25H11.25V4.5H2.25V11.25ZM13.5 13.5C13.7125 13.5 13.8906 13.4281 14.0344 13.2844C14.1781 13.1406 14.25 12.9625 14.25 12.75C14.25 12.5375 14.1781 12.3594 14.0344 12.2156C13.8906 12.0719 13.7125 12 13.5 12C13.2875 12 13.1094 12.0719 12.9656 12.2156C12.8219 12.3594 12.75 12.5375 12.75 12.75C12.75 12.9625 12.8219 13.1406 12.9656 13.2844C13.1094 13.4281 13.2875 13.5 13.5 13.5ZM12.75 9.75H15.9375L14.25 7.5H12.75V9.75Z" fill="#282828"/>
  </g>
</symbol>

<symbol id="sample" xmlns="http://www.w3.org/2000/svg" width="18" height="18" viewBox="0 0 18 18" fill="none">
  <mask id="mask0_171_155" style="mask-type:alpha" maskUnits="userSpaceOnUse" x="0" y="0" width="18" height="18">
    <rect width="18" height="18" fill="#D9D9D9"/>
  </mask>
  <g mask="url(#mask0_171_155)">
    <path d="M10.6875 16.05C10.4 16.3375 10.0437 16.4813 9.61875 16.4813C9.19375 16.4813 8.8375 16.3375 8.55 16.05L1.95 9.45C1.8125 9.3125 1.70313 9.15 1.62188 8.9625C1.54062 8.775 1.5 8.575 1.5 8.3625V3C1.5 2.5875 1.64688 2.23438 1.94063 1.94063C2.23438 1.64688 2.5875 1.5 3 1.5H8.3625C8.575 1.5 8.775 1.54062 8.9625 1.62188C9.15 1.70313 9.3125 1.8125 9.45 1.95L16.05 8.56875C16.3375 8.85625 16.4813 9.20938 16.4813 9.62813C16.4813 10.0469 16.3375 10.4 16.05 10.6875L10.6875 16.05ZM9.61875 15L14.9813 9.6375L8.3625 3H3V8.3625L9.61875 15ZM4.875 6C5.1875 6 5.45312 5.89062 5.67188 5.67188C5.89062 5.45312 6 5.1875 6 4.875C6 4.5625 5.89062 4.29688 5.67188 4.07812C5.45312 3.85938 5.1875 3.75 4.875 3.75C4.5625 3.75 4.29688 3.85938 4.07812 4.07812C3.85938 4.29688 3.75 4.5625 3.75 4.875C3.75 5.1875 3.85938 5.45312 4.07812 5.67188C4.29688 5.89062 4.5625 6 4.875 6Z" fill="black"/>
  </g>
</symbol>

<symbol id="certificat" xmlns="http://www.w3.org/2000/svg" width="36" height="36" viewBox="0 0 36 36" fill="none">
  <mask id="mask0_322_841" style="mask-type:alpha" maskUnits="userSpaceOnUse" x="0" y="0" width="36" height="36">
    <rect width="36" height="36" fill="#D9D9D9"/>
  </mask>
  <g mask="url(#mask0_322_841)">
    <path d="M6 25.5V28.5H30V25.5H6ZM6 9H9.3C9.175 8.775 9.09375 8.5375 9.05625 8.2875C9.01875 8.0375 9 7.775 9 7.5C9 6.25 9.4375 5.1875 10.3125 4.3125C11.1875 3.4375 12.25 3 13.5 3C14.25 3 14.9437 3.19375 15.5812 3.58125C16.2188 3.96875 16.775 4.45 17.25 5.025L18 6L18.75 5.025C19.2 4.425 19.75 3.9375 20.4 3.5625C21.05 3.1875 21.75 3 22.5 3C23.75 3 24.8125 3.4375 25.6875 4.3125C26.5625 5.1875 27 6.25 27 7.5C27 7.775 26.9813 8.0375 26.9438 8.2875C26.9062 8.5375 26.825 8.775 26.7 9H30C30.825 9 31.5312 9.29375 32.1188 9.88125C32.7063 10.4688 33 11.175 33 12V28.5C33 29.325 32.7063 30.0312 32.1188 30.6188C31.5312 31.2063 30.825 31.5 30 31.5H6C5.175 31.5 4.46875 31.2063 3.88125 30.6188C3.29375 30.0312 3 29.325 3 28.5V12C3 11.175 3.29375 10.4688 3.88125 9.88125C4.46875 9.29375 5.175 9 6 9ZM6 21H30V12H22.35L25.5 16.275L23.1 18L18 11.1L12.9 18L10.5 16.275L13.575 12H6V21ZM13.5 9C13.925 9 14.2812 8.85625 14.5688 8.56875C14.8562 8.28125 15 7.925 15 7.5C15 7.075 14.8562 6.71875 14.5688 6.43125C14.2812 6.14375 13.925 6 13.5 6C13.075 6 12.7188 6.14375 12.4312 6.43125C12.1438 6.71875 12 7.075 12 7.5C12 7.925 12.1438 8.28125 12.4312 8.56875C12.7188 8.85625 13.075 9 13.5 9ZM22.5 9C22.925 9 23.2812 8.85625 23.5688 8.56875C23.8563 8.28125 24 7.925 24 7.5C24 7.075 23.8563 6.71875 23.5688 6.43125C23.2812 6.14375 22.925 6 22.5 6C22.075 6 21.7188 6.14375 21.4313 6.43125C21.1438 6.71875 21 7.075 21 7.5C21 7.925 21.1438 8.28125 21.4313 8.56875C21.7188 8.85625 22.075 9 22.5 9Z" fill="#282828"/>
  </g>
</symbol>

<symbol id="teapot" width="18" height="18" viewBox="0 0 18 18" xmlns="http://www.w3.org/2000/svg">
<path d="M8.29995 0.0527337C8.05737 0.123046 7.89917 0.214452 7.68823 0.418359C7.35073 0.741796 7.24175 1.05117 7.24175 1.67695V2.07422H6.46831C5.55777 2.07422 5.43472 2.10234 5.11128 2.39766C4.79136 2.69297 4.67534 3.00586 4.67534 3.58594V3.90234H3.97222C3.46245 3.90234 3.18823 3.91641 2.99487 3.95859C1.73628 4.21875 0.74839 5.21367 0.512843 6.46523C0.446046 6.80273 0.439015 7.66406 0.495265 8.01562C0.649952 9 1.31441 9.88594 2.23902 10.35C2.37612 10.4168 2.59058 10.5012 2.71362 10.5328C2.83667 10.568 2.94566 10.6031 2.95972 10.6137C2.97027 10.6242 3.023 10.8211 3.07573 11.0461C3.12495 11.2711 3.20581 11.5699 3.25152 11.7105C3.35698 12.0164 3.35698 12.0129 3.27261 12.041C3.22691 12.0551 3.12847 12.0094 2.96675 11.9004C2.54487 11.6121 2.10542 11.4187 1.65894 11.3344C0.878468 11.1867 0.720265 11.3484 0.720265 12.2871C0.723781 12.9094 0.783546 13.1836 1.07886 13.8762C1.09292 13.9113 1.02964 13.9219 0.822218 13.9219C0.498781 13.9219 0.308937 13.9922 0.164796 14.1645C0.0136243 14.3437 -0.00746944 14.4773 0.00659306 15.2051C0.0206556 15.9891 0.0487806 16.084 0.330031 16.2562C0.474171 16.3477 0.540968 16.3617 0.808156 16.3758L1.12105 16.3898L1.13159 17.093L1.14214 17.7961L1.25816 17.898L1.37066 18H3.30425H5.23784L5.35034 17.898L5.46636 17.7961L5.47691 17.0895L5.48745 16.3828H9.00308H12.5152V17.0719V17.7609L12.6347 17.8805L12.7542 18H14.6914H16.6285L16.741 17.898L16.857 17.7961L16.8675 17.093L16.8781 16.3898L17.191 16.3758C17.4582 16.3617 17.525 16.3477 17.6691 16.2562C17.9503 16.084 17.9785 15.9891 17.9925 15.2051C18.0066 14.4773 17.9855 14.3437 17.8343 14.1645C17.6375 13.9289 17.5882 13.9219 16.2523 13.9219C15.5878 13.9219 15.0464 13.9148 15.0464 13.9043C15.0464 13.8937 15.1308 13.7848 15.2328 13.6652C15.3312 13.5457 15.4683 13.3629 15.5351 13.2645L15.6511 13.0781H15.957C16.6847 13.0746 17.0785 12.948 17.423 12.607C17.7675 12.259 17.9433 11.7352 17.866 11.2852C17.7746 10.7719 17.4546 10.3465 16.9976 10.1215L16.7515 10.002L15.616 9.98437C14.9937 9.97383 14.4839 9.95625 14.4839 9.93867C14.4839 9.92461 14.4839 9.62227 14.4839 9.26719V8.62383L15.6089 7.01719C16.2277 6.13125 16.7515 5.37891 16.7691 5.34375C16.8359 5.21719 16.8113 5.0625 16.7023 4.95352L16.6003 4.85156L14.9164 4.84805L13.2359 4.84453L12.9652 4.47891L12.691 4.11328V3.69141C12.691 2.99883 12.5925 2.70703 12.255 2.39766C11.9316 2.10234 11.8085 2.07422 10.898 2.07422H10.1246V1.67695C10.1246 1.02656 10.0085 0.724218 9.63237 0.372656C9.49878 0.249609 9.35112 0.154687 9.22105 0.105468C8.95737 0.00351491 8.55308 -0.0175788 8.29995 0.0527337ZM8.91167 0.741796C9.09448 0.794531 9.33003 1.03008 9.38277 1.21289C9.40386 1.29023 9.42144 1.5082 9.42144 1.69453V2.03906H8.68316H7.94487V1.69453C7.94487 1.25156 7.98355 1.11797 8.17339 0.928124C8.38433 0.717187 8.61284 0.660937 8.91167 0.741796ZM11.7066 2.8582C11.9175 2.99883 11.9703 3.13242 11.9703 3.5332V3.88477L11.0281 3.90234L10.0824 3.91992L9.998 4.01836C9.87847 4.15898 9.8855 4.32773 10.0156 4.47187L10.1175 4.58789L11.1546 4.60547L12.1917 4.62305L12.3078 4.76367C12.7191 5.27344 13.1796 6.13828 13.4082 6.83789C13.5523 7.27031 13.6894 7.90664 13.7457 8.38477C13.7843 8.73281 13.7949 9.70312 13.7597 9.87539L13.7386 9.98437H11.9527C10.216 9.98437 10.1667 9.98789 10.0789 10.0547C9.96987 10.1391 9.92769 10.3184 9.87847 10.8914C9.78355 11.9953 10.0859 12.9797 10.7328 13.6969C10.8242 13.7988 10.898 13.8902 10.898 13.9008C10.898 13.9113 9.65698 13.9219 8.13823 13.9219C6.61948 13.9219 5.37847 13.9148 5.37847 13.9043C5.37847 13.8937 5.41714 13.7883 5.46636 13.6652C5.69136 13.1203 5.80034 12.4137 5.73706 11.9566C5.6562 11.3766 5.53667 11.257 5.06558 11.2992C4.75269 11.3238 4.53823 11.3801 4.20776 11.5137C4.07417 11.5664 3.96167 11.6016 3.95112 11.5945C3.91948 11.5629 3.72612 10.7613 3.67339 10.4414C3.59253 9.98086 3.56441 8.89805 3.61714 8.4375C3.77886 7.04531 4.23589 5.86055 5.0023 4.84102L5.18159 4.60547H6.18003C7.04839 4.60547 7.19253 4.59844 7.27691 4.5457C7.46675 4.43672 7.50894 4.18359 7.36831 4.01836L7.28394 3.91992L6.33823 3.90234L5.39605 3.88477V3.5332C5.39605 3.13242 5.44878 2.99883 5.65972 2.8582L5.77573 2.77734H8.68316H11.5906L11.7066 2.8582ZM4.26401 4.64766C4.24995 4.67227 4.17964 4.78477 4.10581 4.89375C3.73667 5.44922 3.38159 6.25078 3.1812 6.98203C2.9773 7.72734 2.9105 8.19141 2.89292 9.05977C2.88237 9.49219 2.86831 9.84375 2.86128 9.84375C2.85073 9.84375 2.74878 9.80508 2.63277 9.75586C2.14058 9.55547 1.67651 9.1125 1.41987 8.5957C1.21597 8.18086 1.15972 7.90664 1.15972 7.28437C1.15972 6.52852 1.27925 6.10312 1.63784 5.60391C1.9437 5.17148 2.54839 4.7707 3.06519 4.6582C3.3605 4.59492 4.30269 4.58789 4.26401 4.64766ZM15.7496 5.57227C15.7496 5.60742 14.375 7.54102 14.3539 7.53398C14.3433 7.53047 14.2906 7.35469 14.2343 7.14727C14.1113 6.67266 13.9531 6.21914 13.7808 5.84297L13.6437 5.55469H14.6984C15.275 5.55469 15.7496 5.56172 15.7496 5.57227ZM15.3417 10.7648C15.3839 10.9266 15.3628 11.7141 15.3066 11.9812C15.173 12.6387 14.8355 13.166 14.1921 13.718L13.9531 13.9219H12.9511H11.9492L11.5203 13.4895C10.9718 12.941 10.7574 12.5789 10.6343 11.9953C10.5816 11.7598 10.5605 10.8527 10.6027 10.7437C10.6238 10.6945 10.8628 10.6875 12.9722 10.6875H15.3207L15.3417 10.7648ZM16.6812 10.7543C17.0433 10.9195 17.2542 11.3414 17.1558 11.707C17.0468 12.1148 16.7585 12.3258 16.2593 12.3609L15.95 12.3855L15.9746 12.266C16.0484 11.8969 16.0695 11.6297 16.0589 11.1832L16.0484 10.6875H16.2945C16.4562 10.6875 16.5898 10.7121 16.6812 10.7543ZM1.85581 12.1254C2.13003 12.2203 2.72066 12.5402 2.69956 12.5859C2.69253 12.5965 2.62925 12.723 2.55542 12.8672C2.40777 13.166 2.34097 13.4648 2.36206 13.7355L2.37964 13.9219H2.14058H1.90503L1.76441 13.6477C1.56401 13.2645 1.44097 12.8215 1.41636 12.382L1.39526 12.0234H1.47964C1.52534 12.0234 1.69761 12.0691 1.85581 12.1254ZM5.048 12.1113C5.11831 12.3891 4.8898 13.3418 4.66128 13.7215L4.5523 13.9043L3.82456 13.9148L3.09683 13.9219L3.07222 13.7637C3.04761 13.5879 3.09683 13.3523 3.19878 13.1449C3.38511 12.7793 4.09175 12.2766 4.67534 12.0902C4.94956 12.0023 5.01987 12.0059 5.048 12.1113ZM17.2964 15.1523V15.6797H8.99956H0.702687V15.1523V14.625H8.99956H17.2964V15.1523ZM4.78081 16.8398V17.2969H3.30425H1.82769V16.8398V16.3828H3.30425H4.78081V16.8398ZM16.1714 16.8398V17.2969H14.6949H13.2183V16.8398V16.3828H14.6949H16.1714V16.8398Z"/>
<path d="M8.43359 4.0043C8.29297 4.14492 8.29297 4.31719 8.43359 4.47188C8.51797 4.5668 8.56016 4.58789 8.6832 4.58789C8.80625 4.58789 8.84844 4.5668 8.93281 4.47188C9.07344 4.31719 9.07344 4.14492 8.93281 4.0043C8.85195 3.92344 8.79922 3.90234 8.6832 3.90234C8.56719 3.90234 8.51445 3.92344 8.43359 4.0043Z"/>
<path d="M5.58965 5.46685C5.47012 5.53013 5.16426 6.02935 4.95684 6.49693C4.62988 7.22818 4.44355 8.03326 4.40488 8.86646L4.38379 9.3481L4.49277 9.45357C4.67207 9.63287 4.9709 9.58365 5.05527 9.35865C5.07637 9.30591 5.10098 9.0774 5.11152 8.8524C5.16074 7.8856 5.46309 6.90123 5.95176 6.11724C6.04316 5.9731 6.11699 5.81841 6.11699 5.77623C6.11699 5.50201 5.82871 5.33326 5.58965 5.46685Z" />
</symbol>

<symbol id="logout" xmlns="http://www.w3.org/2000/svg" width="24" height="24" viewBox="0 0 24 24" fill="none">
  <path d="M4.92893 19.0711C6.32746 20.4696 8.10929 21.422 10.0491 21.8079C11.9889 22.1937 13.9996 21.9957 15.8268 21.2388C17.6541 20.4819 19.2159 19.2002 20.3147 17.5557C21.4135 15.9112 22 13.9778 22 12C22 10.0222 21.4135 8.08879 20.3147 6.4443C19.2159 4.79981 17.6541 3.51808 15.8268 2.76121C13.9996 2.00433 11.9889 1.8063 10.0491 2.19215C8.10929 2.578 6.32746 3.53041 4.92893 4.92893" stroke="#222222"/>
  <path d="M15 12L15.3904 11.6877L15.6403 12L15.3904 12.3123L15 12ZM3 12.5C2.72386 12.5 2.5 12.2761 2.5 12C2.5 11.7239 2.72386 11.5 3 11.5V12.5ZM11.3904 6.68765L15.3904 11.6877L14.6096 12.3123L10.6096 7.31235L11.3904 6.68765ZM15.3904 12.3123L11.3904 17.3123L10.6096 16.6877L14.6096 11.6877L15.3904 12.3123ZM15 12.5H3V11.5H15V12.5Z" fill="#222222"/>
</symbol>

<svg id="login-email-icon" xmlns="http://www.w3.org/2000/svg" width="24" height="25" viewBox="0 0 24 25" fill="none">
  <mask id="mask0_900_532" style="mask-type:alpha" maskUnits="userSpaceOnUse" x="0" y="0" width="24" height="25">
    <rect y="0.5" width="24" height="24" fill="#D9D9D9"/>
  </mask>
  <g mask="url(#mask0_900_532)">
    <path d="M4 20.5C3.45 20.5 2.97917 20.3042 2.5875 19.9125C2.19583 19.5208 2 19.05 2 18.5V6.5C2 5.95 2.19583 5.47917 2.5875 5.0875C2.97917 4.69583 3.45 4.5 4 4.5H20C20.55 4.5 21.0208 4.69583 21.4125 5.0875C21.8042 5.47917 22 5.95 22 6.5V18.5C22 19.05 21.8042 19.5208 21.4125 19.9125C21.0208 20.3042 20.55 20.5 20 20.5H4ZM12 13.5L4 8.5V18.5H20V8.5L12 13.5ZM12 11.5L20 6.5H4L12 11.5ZM4 8.5V6.5V18.5V8.5Z" fill="#282828"/>
  </g>
</svg>

<symbol id="login-password-icon" xmlns="http://www.w3.org/2000/svg" width="24" height="25" viewBox="0 0 24 25" fill="none">
  <mask id="mask0_900_575" style="mask-type:alpha" maskUnits="userSpaceOnUse" x="0" y="0" width="24" height="25">
    <rect y="0.5" width="24" height="24" fill="#D9D9D9"/>
  </mask>
  <g mask="url(#mask0_900_575)">
    <path d="M4 17.5V19.5H20V17.5H4ZM4 6.5H6.2C6.11667 6.35 6.0625 6.19167 6.0375 6.025C6.0125 5.85833 6 5.68333 6 5.5C6 4.66667 6.29167 3.95833 6.875 3.375C7.45833 2.79167 8.16667 2.5 9 2.5C9.5 2.5 9.9625 2.62917 10.3875 2.8875C10.8125 3.14583 11.1833 3.46667 11.5 3.85L12 4.5L12.5 3.85C12.8 3.45 13.1667 3.125 13.6 2.875C14.0333 2.625 14.5 2.5 15 2.5C15.8333 2.5 16.5417 2.79167 17.125 3.375C17.7083 3.95833 18 4.66667 18 5.5C18 5.68333 17.9875 5.85833 17.9625 6.025C17.9375 6.19167 17.8833 6.35 17.8 6.5H20C20.55 6.5 21.0208 6.69583 21.4125 7.0875C21.8042 7.47917 22 7.95 22 8.5V19.5C22 20.05 21.8042 20.5208 21.4125 20.9125C21.0208 21.3042 20.55 21.5 20 21.5H4C3.45 21.5 2.97917 21.3042 2.5875 20.9125C2.19583 20.5208 2 20.05 2 19.5V8.5C2 7.95 2.19583 7.47917 2.5875 7.0875C2.97917 6.69583 3.45 6.5 4 6.5ZM4 14.5H20V8.5H14.9L17 11.35L15.4 12.5L12 7.9L8.6 12.5L7 11.35L9.05 8.5H4V14.5ZM9 6.5C9.28333 6.5 9.52083 6.40417 9.7125 6.2125C9.90417 6.02083 10 5.78333 10 5.5C10 5.21667 9.90417 4.97917 9.7125 4.7875C9.52083 4.59583 9.28333 4.5 9 4.5C8.71667 4.5 8.47917 4.59583 8.2875 4.7875C8.09583 4.97917 8 5.21667 8 5.5C8 5.78333 8.09583 6.02083 8.2875 6.2125C8.47917 6.40417 8.71667 6.5 9 6.5ZM15 6.5C15.2833 6.5 15.5208 6.40417 15.7125 6.2125C15.9042 6.02083 16 5.78333 16 5.5C16 5.21667 15.9042 4.97917 15.7125 4.7875C15.5208 4.59583 15.2833 4.5 15 4.5C14.7167 4.5 14.4792 4.59583 14.2875 4.7875C14.0958 4.97917 14 5.21667 14 5.5C14 5.78333 14.0958 6.02083 14.2875 6.2125C14.4792 6.40417 14.7167 6.5 15 6.5Z" fill="#282828"/>
  </g>
</symbol>

</svg>
