<svg xmlns="http://www.w3.org/2000/svg">

<symbol id="logo" width="24" height="24" viewBox="0 0 24 24" fill="none" xmlns="http://www.w3.org/2000/svg">
<mask id="mask0_319_798" style="mask-type:alpha" maskUnits="userSpaceOnUse" x="0" y="0" width="24" height="24">
<rect width="24" height="24" fill="#D9D9D9"/>
</mask>
<g mask="url(#mask0_319_798)">
<path d="M11 21V13.025C9.93333 13.025 8.90833 12.8207 7.925 12.412C6.94167 12.004 6.075 11.425 5.325 10.675C4.575 9.925 4 9.05833 3.6 8.075C3.2 7.09167 3 6.06667 3 5V3H5C6.05 3 7.06667 3.204 8.05 3.612C9.03333 4.02067 9.9 4.6 10.65 5.35C11.1667 5.86667 11.596 6.43333 11.938 7.05C12.2793 7.66667 12.5417 8.325 12.725 9.025C12.8083 8.90833 12.9 8.796 13 8.688C13.1 8.57933 13.2083 8.46667 13.325 8.35C14.075 7.6 14.9417 7.02067 15.925 6.612C16.9083 6.204 17.9333 6 19 6H21V8C21 9.06667 20.796 10.0917 20.388 11.075C19.9793 12.0583 19.4 12.925 18.65 13.675C17.9 14.425 17.0373 15 16.062 15.4C15.0873 15.8 14.0667 16 13 16V21H11Z" fill="#282828"/>
</g>
</symbol>







</svg>
