<svg xmlns="http://www.w3.org/2000/svg">
<symbol id="logo" width="24" height="24" viewBox="0 0 24 24" fill="none" xmlns="http://www.w3.org/2000/svg">
<mask id="mask0_319_798" style="mask-type:alpha" maskUnits="userSpaceOnUse" x="0" y="0" width="24" height="24">
<rect width="24" height="24" fill="#D9D9D9"/>
</mask>
<g mask="url(#mask0_319_798)">
<path d="M11 21V13.025C9.93333 13.025 8.90833 12.8207 7.925 12.412C6.94167 12.004 6.075 11.425 5.325 10.675C4.575 9.925 4 9.05833 3.6 8.075C3.2 7.09167 3 6.06667 3 5V3H5C6.05 3 7.06667 3.204 8.05 3.612C9.03333 4.02067 9.9 4.6 10.65 5.35C11.1667 5.86667 11.596 6.43333 11.938 7.05C12.2793 7.66667 12.5417 8.325 12.725 9.025C12.8083 8.90833 12.9 8.796 13 8.688C13.1 8.57933 13.2083 8.46667 13.325 8.35C14.075 7.6 14.9417 7.02067 15.925 6.612C16.9083 6.204 17.9333 6 19 6H21V8C21 9.06667 20.796 10.0917 20.388 11.075C19.9793 12.0583 19.4 12.925 18.65 13.675C17.9 14.425 17.0373 15 16.062 15.4C15.0873 15.8 14.0667 16 13 16V21H11Z" fill="#282828"/>
</g>
</symbol>

<symbol id="search" width="18" height="18" viewBox="0 0 18 18" fill="none" xmlns="http://www.w3.org/2000/svg">
<mask id="mask0_166_87" style="mask-type:alpha" maskUnits="userSpaceOnUse" x="0" y="0" width="18" height="18">
<rect width="18" height="18" fill="#D9D9D9"/>
</mask>
<g mask="url(#mask0_166_87)">
<path d="M14.7 15.75L9.975 11.025C9.6 11.325 9.16875 11.5625 8.68125 11.7375C8.19375 11.9125 7.675 12 7.125 12C5.7625 12 4.6095 11.5282 3.666 10.5848C2.722 9.64075 2.25 8.4875 2.25 7.125C2.25 5.7625 2.722 4.60925 3.666 3.66525C4.6095 2.72175 5.7625 2.25 7.125 2.25C8.4875 2.25 9.64075 2.72175 10.5848 3.66525C11.5282 4.60925 12 5.7625 12 7.125C12 7.675 11.9125 8.19375 11.7375 8.68125C11.5625 9.16875 11.325 9.6 11.025 9.975L15.75 14.7L14.7 15.75ZM7.125 10.5C8.0625 10.5 8.8595 10.172 9.516 9.516C10.172 8.8595 10.5 8.0625 10.5 7.125C10.5 6.1875 10.172 5.3905 9.516 4.734C8.8595 4.078 8.0625 3.75 7.125 3.75C6.1875 3.75 5.3905 4.078 4.734 4.734C4.078 5.3905 3.75 6.1875 3.75 7.125C3.75 8.0625 4.078 8.8595 4.734 9.516C5.3905 10.172 6.1875 10.5 7.125 10.5Z" fill="#282828"/>
</g>
</symbol>

<symbol id="person" width="18" height="18" viewBox="0 0 18 18" fill="none" xmlns="http://www.w3.org/2000/svg">
<mask id="mask0_166_89" style="mask-type:alpha" maskUnits="userSpaceOnUse" x="0" y="0" width="18" height="18">
<rect width="18" height="18" fill="#D9D9D9"/>
</mask>
<g mask="url(#mask0_166_89)">
<path d="M9 9C8.175 9 7.46875 8.70625 6.88125 8.11875C6.29375 7.53125 6 6.825 6 6C6 5.175 6.29375 4.46875 6.88125 3.88125C7.46875 3.29375 8.175 3 9 3C9.825 3 10.5312 3.29375 11.1187 3.88125C11.7063 4.46875 12 5.175 12 6C12 6.825 11.7063 7.53125 11.1187 8.11875C10.5312 8.70625 9.825 9 9 9ZM3 15V12.9C3 12.475 3.1095 12.0843 3.3285 11.7277C3.547 11.3717 3.8375 11.1 4.2 10.9125C4.975 10.525 5.7625 10.2343 6.5625 10.0402C7.3625 9.84675 8.175 9.75 9 9.75C9.825 9.75 10.6375 9.84675 11.4375 10.0402C12.2375 10.2343 13.025 10.525 13.8 10.9125C14.1625 11.1 14.453 11.3717 14.6715 11.7277C14.8905 12.0843 15 12.475 15 12.9V15H3ZM4.5 13.5H13.5V12.9C13.5 12.7625 13.4658 12.6375 13.3973 12.525C13.3283 12.4125 13.2375 12.325 13.125 12.2625C12.45 11.925 11.7688 11.6718 11.0812 11.5028C10.3937 11.3342 9.7 11.25 9 11.25C8.3 11.25 7.60625 11.3342 6.91875 11.5028C6.23125 11.6718 5.55 11.925 4.875 12.2625C4.7625 12.325 4.672 12.4125 4.6035 12.525C4.5345 12.6375 4.5 12.7625 4.5 12.9V13.5ZM9 7.5C9.4125 7.5 9.76575 7.353 10.0598 7.059C10.3533 6.7655 10.5 6.4125 10.5 6C10.5 5.5875 10.3533 5.2345 10.0598 4.941C9.76575 4.647 9.4125 4.5 9 4.5C8.5875 4.5 8.2345 4.647 7.941 4.941C7.647 5.2345 7.5 5.5875 7.5 6C7.5 6.4125 7.647 6.7655 7.941 7.059C8.2345 7.353 8.5875 7.5 9 7.5Z" fill="black"/>
</g>
</symbol>

<symbol id="corb" width="18" height="18" viewBox="0 0 18 18" fill="none" xmlns="http://www.w3.org/2000/svg">
<mask id="mask0_166_88" style="mask-type:alpha" maskUnits="userSpaceOnUse" x="0" y="0" width="18" height="18">
<rect width="18" height="18" fill="#D9D9D9"/>
</mask>
<g mask="url(#mask0_166_88)">
<path d="M3.75 16.5C3.3375 16.5 2.98425 16.3533 2.69025 16.0597C2.39675 15.7657 2.25 15.4125 2.25 15V6C2.25 5.5875 2.39675 5.2345 2.69025 4.941C2.98425 4.647 3.3375 4.5 3.75 4.5H5.25C5.25 3.4625 5.61575 2.578 6.34725 1.8465C7.07825 1.1155 7.9625 0.75 9 0.75C10.0375 0.75 10.922 1.1155 11.6535 1.8465C12.3845 2.578 12.75 3.4625 12.75 4.5H14.25C14.6625 4.5 15.0157 4.647 15.3097 4.941C15.6033 5.2345 15.75 5.5875 15.75 6V15C15.75 15.4125 15.6033 15.7657 15.3097 16.0597C15.0157 16.3533 14.6625 16.5 14.25 16.5H3.75ZM3.75 15H14.25V6H3.75V15ZM9 10.5C10.0375 10.5 10.922 10.1342 11.6535 9.40275C12.3845 8.67175 12.75 7.7875 12.75 6.75H11.25C11.25 7.375 11.0312 7.90625 10.5938 8.34375C10.1562 8.78125 9.625 9 9 9C8.375 9 7.84375 8.78125 7.40625 8.34375C6.96875 7.90625 6.75 7.375 6.75 6.75H5.25C5.25 7.7875 5.61575 8.67175 6.34725 9.40275C7.07825 10.1342 7.9625 10.5 9 10.5ZM6.75 4.5H11.25C11.25 3.875 11.0312 3.34375 10.5938 2.90625C10.1562 2.46875 9.625 2.25 9 2.25C8.375 2.25 7.84375 2.46875 7.40625 2.90625C6.96875 3.34375 6.75 3.875 6.75 4.5Z" fill="#282828"/>
</g>
</symbol>

<symbol id="cafe" width="18" height="18" viewBox="0 0 18 18" fill="none" xmlns="http://www.w3.org/2000/svg">
<mask id="mask0_171_153" style="mask-type:alpha" maskUnits="userSpaceOnUse" x="0" y="0" width="18" height="18">
<rect width="18" height="18" fill="#D9D9D9"/>
</mask>
<g mask="url(#mask0_171_153)">
<path d="M3 15.75V14.25H15V15.75H3ZM6 12.75C5.175 12.75 4.46875 12.4563 3.88125 11.8687C3.29375 11.2812 3 10.575 3 9.75V2.25H15C15.4125 2.25 15.7656 2.39688 16.0594 2.69063C16.3531 2.98438 16.5 3.3375 16.5 3.75V6C16.5 6.4125 16.3531 6.76562 16.0594 7.05937C15.7656 7.35313 15.4125 7.5 15 7.5H13.5V9.75C13.5 10.575 13.2063 11.2812 12.6187 11.8687C12.0312 12.4563 11.325 12.75 10.5 12.75H6ZM6 11.25H10.5C10.9125 11.25 11.2656 11.1031 11.5594 10.8094C11.8531 10.5156 12 10.1625 12 9.75V3.75H4.5V9.75C4.5 10.1625 4.64688 10.5156 4.94063 10.8094C5.23438 11.1031 5.5875 11.25 6 11.25ZM13.5 6H15V3.75H13.5V6Z" fill="#282828"/>
</g>
</symbol>

<symbol id="plus" width="18" height="18" viewBox="0 0 18 18" fill="none" xmlns="http://www.w3.org/2000/svg">
<mask id="mask0_154_789" style="mask-type:alpha" maskUnits="userSpaceOnUse" x="0" y="0" width="18" height="18">
<rect width="18" height="18" fill="#D9D9D9"/>
</mask>
<g mask="url(#mask0_154_789)">
<path d="M8.25 14.25V9.75H3.75V8.25H8.25V3.75H9.75V8.25H14.25V9.75H9.75V14.25H8.25Z" fill="#282828"/>
</g>
</symbol>

<symbol id="location" width="18" height="18" viewBox="0 0 18 18" fill="none" xmlns="http://www.w3.org/2000/svg">
<mask id="mask0_190_530" style="mask-type:alpha" maskUnits="userSpaceOnUse" x="0" y="0" width="18" height="18">
<rect width="18" height="18" fill="#D9D9D9"/>
</mask>
<g mask="url(#mask0_190_530)">
<path d="M9 9C9.4125 9 9.76563 8.85313 10.0594 8.55938C10.3531 8.26563 10.5 7.9125 10.5 7.5C10.5 7.0875 10.3531 6.73438 10.0594 6.44063C9.76563 6.14687 9.4125 6 9 6C8.5875 6 8.23438 6.14687 7.94063 6.44063C7.64687 6.73438 7.5 7.0875 7.5 7.5C7.5 7.9125 7.64687 8.26563 7.94063 8.55938C8.23438 8.85313 8.5875 9 9 9ZM9 14.5125C10.525 13.1125 11.6562 11.8406 12.3938 10.6969C13.1313 9.55312 13.5 8.5375 13.5 7.65C13.5 6.2875 13.0656 5.17188 12.1969 4.30312C11.3281 3.43438 10.2625 3 9 3C7.7375 3 6.67188 3.43438 5.80312 4.30312C4.93438 5.17188 4.5 6.2875 4.5 7.65C4.5 8.5375 4.86875 9.55312 5.60625 10.6969C6.34375 11.8406 7.475 13.1125 9 14.5125ZM9 16.5C6.9875 14.7875 5.48438 13.1969 4.49063 11.7281C3.49688 10.2594 3 8.9 3 7.65C3 5.775 3.60312 4.28125 4.80938 3.16875C6.01563 2.05625 7.4125 1.5 9 1.5C10.5875 1.5 11.9844 2.05625 13.1906 3.16875C14.3969 4.28125 15 5.775 15 7.65C15 8.9 14.5031 10.2594 13.5094 11.7281C12.5156 13.1969 11.0125 14.7875 9 16.5Z" fill="#282828"/>
</g>
</symbol>

<symbol id="call" width="18" height="18" viewBox="0 0 18 18" fill="none" xmlns="http://www.w3.org/2000/svg">
<mask id="mask0_190_529" style="mask-type:alpha" maskUnits="userSpaceOnUse" x="0" y="0" width="18" height="18">
<rect width="18" height="18" fill="#D9D9D9"/>
</mask>
<g mask="url(#mask0_190_529)">
<path d="M14.9625 15.75C13.35 15.75 11.7781 15.3906 10.2469 14.6719C8.71563 13.9531 7.35938 13.0031 6.17813 11.8219C4.99688 10.6406 4.04688 9.28438 3.32812 7.75313C2.60938 6.22187 2.25 4.65 2.25 3.0375C2.25 2.8125 2.325 2.625 2.475 2.475C2.625 2.325 2.8125 2.25 3.0375 2.25H6.075C6.25 2.25 6.40625 2.30625 6.54375 2.41875C6.68125 2.53125 6.7625 2.675 6.7875 2.85L7.275 5.475C7.3 5.65 7.29688 5.80938 7.26562 5.95312C7.23438 6.09687 7.1625 6.225 7.05 6.3375L5.23125 8.175C5.75625 9.075 6.41563 9.91875 7.20938 10.7063C8.00313 11.4938 8.875 12.175 9.825 12.75L11.5875 10.9875C11.7 10.875 11.8469 10.7906 12.0281 10.7344C12.2094 10.6781 12.3875 10.6625 12.5625 10.6875L15.15 11.2125C15.325 11.25 15.4688 11.3344 15.5812 11.4656C15.6937 11.5969 15.75 11.75 15.75 11.925V14.9625C15.75 15.1875 15.675 15.375 15.525 15.525C15.375 15.675 15.1875 15.75 14.9625 15.75ZM4.51875 6.75L5.75625 5.5125L5.4375 3.75H3.76875C3.83125 4.2625 3.91875 4.76875 4.03125 5.26875C4.14375 5.76875 4.30625 6.2625 4.51875 6.75ZM11.2313 13.4625C11.7188 13.675 12.2156 13.8438 12.7219 13.9688C13.2281 14.0938 13.7375 14.175 14.25 14.2125V12.5625L12.4875 12.2063L11.2313 13.4625Z" fill="#282828"/>
</g>
</symbol>

<symbol id="mail" width="18" height="18" viewBox="0 0 18 18" fill="none" xmlns="http://www.w3.org/2000/svg">
<mask id="mask0_190_528" style="mask-type:alpha" maskUnits="userSpaceOnUse" x="0" y="0" width="18" height="18">
<rect width="18" height="18" fill="#D9D9D9"/>
</mask>
<g mask="url(#mask0_190_528)">
<path d="M3 15C2.5875 15 2.23438 14.8531 1.94063 14.5594C1.64688 14.2656 1.5 13.9125 1.5 13.5V4.5C1.5 4.0875 1.64688 3.73438 1.94063 3.44063C2.23438 3.14688 2.5875 3 3 3H15C15.4125 3 15.7656 3.14688 16.0594 3.44063C16.3531 3.73438 16.5 4.0875 16.5 4.5V13.5C16.5 13.9125 16.3531 14.2656 16.0594 14.5594C15.7656 14.8531 15.4125 15 15 15H3ZM9 9.75L3 6V13.5H15V6L9 9.75ZM9 8.25L15 4.5H3L9 8.25ZM3 6V4.5V13.5V6Z" fill="#282828"/>
</g>
</symbol>

<symbol id="delivery" xmlns="http://www.w3.org/2000/svg" width="18" height="18" viewBox="0 0 18 18" fill="none">
  <mask id="mask0_171_156" style="mask-type:alpha" maskUnits="userSpaceOnUse" x="0" y="0" width="18" height="18">
    <rect width="18" height="18" fill="#D9D9D9"/>
  </mask>
  <g mask="url(#mask0_171_156)">
    <path d="M4.5 15C3.875 15 3.34375 14.7812 2.90625 14.3438C2.46875 13.9062 2.25 13.375 2.25 12.75H0.75V4.5C0.75 4.0875 0.896875 3.73438 1.19063 3.44063C1.48438 3.14688 1.8375 3 2.25 3H12.75V6H15L17.25 9V12.75H15.75C15.75 13.375 15.5312 13.9062 15.0938 14.3438C14.6562 14.7812 14.125 15 13.5 15C12.875 15 12.3438 14.7812 11.9062 14.3438C11.4688 13.9062 11.25 13.375 11.25 12.75H6.75C6.75 13.375 6.53125 13.9062 6.09375 14.3438C5.65625 14.7812 5.125 15 4.5 15ZM4.5 13.5C4.7125 13.5 4.89062 13.4281 5.03438 13.2844C5.17812 13.1406 5.25 12.9625 5.25 12.75C5.25 12.5375 5.17812 12.3594 5.03438 12.2156C4.89062 12.0719 4.7125 12 4.5 12C4.2875 12 4.10938 12.0719 3.96562 12.2156C3.82187 12.3594 3.75 12.5375 3.75 12.75C3.75 12.9625 3.82187 13.1406 3.96562 13.2844C4.10938 13.4281 4.2875 13.5 4.5 13.5ZM2.25 11.25H2.85C3.0625 11.025 3.30625 10.8438 3.58125 10.7063C3.85625 10.5688 4.1625 10.5 4.5 10.5C4.8375 10.5 5.14375 10.5688 5.41875 10.7063C5.69375 10.8438 5.9375 11.025 6.15 11.25H11.25V4.5H2.25V11.25ZM13.5 13.5C13.7125 13.5 13.8906 13.4281 14.0344 13.2844C14.1781 13.1406 14.25 12.9625 14.25 12.75C14.25 12.5375 14.1781 12.3594 14.0344 12.2156C13.8906 12.0719 13.7125 12 13.5 12C13.2875 12 13.1094 12.0719 12.9656 12.2156C12.8219 12.3594 12.75 12.5375 12.75 12.75C12.75 12.9625 12.8219 13.1406 12.9656 13.2844C13.1094 13.4281 13.2875 13.5 13.5 13.5ZM12.75 9.75H15.9375L14.25 7.5H12.75V9.75Z" fill="#282828"/>
  </g>
</symbol>

<symbol id="sample" xmlns="http://www.w3.org/2000/svg" width="18" height="18" viewBox="0 0 18 18" fill="none">
  <mask id="mask0_171_155" style="mask-type:alpha" maskUnits="userSpaceOnUse" x="0" y="0" width="18" height="18">
    <rect width="18" height="18" fill="#D9D9D9"/>
  </mask>
  <g mask="url(#mask0_171_155)">
    <path d="M10.6875 16.05C10.4 16.3375 10.0437 16.4813 9.61875 16.4813C9.19375 16.4813 8.8375 16.3375 8.55 16.05L1.95 9.45C1.8125 9.3125 1.70313 9.15 1.62188 8.9625C1.54062 8.775 1.5 8.575 1.5 8.3625V3C1.5 2.5875 1.64688 2.23438 1.94063 1.94063C2.23438 1.64688 2.5875 1.5 3 1.5H8.3625C8.575 1.5 8.775 1.54062 8.9625 1.62188C9.15 1.70313 9.3125 1.8125 9.45 1.95L16.05 8.56875C16.3375 8.85625 16.4813 9.20938 16.4813 9.62813C16.4813 10.0469 16.3375 10.4 16.05 10.6875L10.6875 16.05ZM9.61875 15L14.9813 9.6375L8.3625 3H3V8.3625L9.61875 15ZM4.875 6C5.1875 6 5.45312 5.89062 5.67188 5.67188C5.89062 5.45312 6 5.1875 6 4.875C6 4.5625 5.89062 4.29688 5.67188 4.07812C5.45312 3.85938 5.1875 3.75 4.875 3.75C4.5625 3.75 4.29688 3.85938 4.07812 4.07812C3.85938 4.29688 3.75 4.5625 3.75 4.875C3.75 5.1875 3.85938 5.45312 4.07812 5.67188C4.29688 5.89062 4.5625 6 4.875 6Z" fill="black"/>
  </g>
</symbol>

<symbol id="certificat" xmlns="http://www.w3.org/2000/svg" width="36" height="36" viewBox="0 0 36 36" fill="none">
  <mask id="mask0_322_841" style="mask-type:alpha" maskUnits="userSpaceOnUse" x="0" y="0" width="36" height="36">
    <rect width="36" height="36" fill="#D9D9D9"/>
  </mask>
  <g mask="url(#mask0_322_841)">
    <path d="M6 25.5V28.5H30V25.5H6ZM6 9H9.3C9.175 8.775 9.09375 8.5375 9.05625 8.2875C9.01875 8.0375 9 7.775 9 7.5C9 6.25 9.4375 5.1875 10.3125 4.3125C11.1875 3.4375 12.25 3 13.5 3C14.25 3 14.9437 3.19375 15.5812 3.58125C16.2188 3.96875 16.775 4.45 17.25 5.025L18 6L18.75 5.025C19.2 4.425 19.75 3.9375 20.4 3.5625C21.05 3.1875 21.75 3 22.5 3C23.75 3 24.8125 3.4375 25.6875 4.3125C26.5625 5.1875 27 6.25 27 7.5C27 7.775 26.9813 8.0375 26.9438 8.2875C26.9062 8.5375 26.825 8.775 26.7 9H30C30.825 9 31.5312 9.29375 32.1188 9.88125C32.7063 10.4688 33 11.175 33 12V28.5C33 29.325 32.7063 30.0312 32.1188 30.6188C31.5312 31.2063 30.825 31.5 30 31.5H6C5.175 31.5 4.46875 31.2063 3.88125 30.6188C3.29375 30.0312 3 29.325 3 28.5V12C3 11.175 3.29375 10.4688 3.88125 9.88125C4.46875 9.29375 5.175 9 6 9ZM6 21H30V12H22.35L25.5 16.275L23.1 18L18 11.1L12.9 18L10.5 16.275L13.575 12H6V21ZM13.5 9C13.925 9 14.2812 8.85625 14.5688 8.56875C14.8562 8.28125 15 7.925 15 7.5C15 7.075 14.8562 6.71875 14.5688 6.43125C14.2812 6.14375 13.925 6 13.5 6C13.075 6 12.7188 6.14375 12.4312 6.43125C12.1438 6.71875 12 7.075 12 7.5C12 7.925 12.1438 8.28125 12.4312 8.56875C12.7188 8.85625 13.075 9 13.5 9ZM22.5 9C22.925 9 23.2812 8.85625 23.5688 8.56875C23.8563 8.28125 24 7.925 24 7.5C24 7.075 23.8563 6.71875 23.5688 6.43125C23.2812 6.14375 22.925 6 22.5 6C22.075 6 21.7188 6.14375 21.4313 6.43125C21.1438 6.71875 21 7.075 21 7.5C21 7.925 21.1438 8.28125 21.4313 8.56875C21.7188 8.85625 22.075 9 22.5 9Z" fill="#282828"/>
  </g>
</symbol>

<svg  id="registration-person" xmlns="http://www.w3.org/2000/svg" width="24" height="24" viewBox="0 0 24 24" fill="none">
<path fill-rule="evenodd" clip-rule="evenodd" d="M12 4C9.79 4 8 5.79 8 8C8 10.21 9.79 12 12 12C14.21 12 16 10.21 16 8C16 5.79 14.21 4 12 4ZM14 8C14 6.9 13.1 6 12 6C10.9 6 10 6.9 10 8C10 9.1 10.9 10 12 10C13.1 10 14 9.1 14 8ZM18 17C17.8 16.29 14.7 15 12 15C9.3 15 6.2 16.29 6 17.01V18H18V17ZM4 17C4 14.34 9.33 13 12 13C14.67 13 20 14.34 20 17V20H4V17Z" fill="#49454E"/>
</svg>

<svg id="date" xmlns="http://www.w3.org/2000/svg" width="24" height="24" viewBox="0 0 24 24" fill="none">
<path fill-rule="evenodd" clip-rule="evenodd" d="M19 4H18V2H16V4H8V2H6V4H5C3.89 4 3 4.9 3 6V20C3 21.1 3.89 22 5 22H19C20.1 22 21 21.1 21 20V6C21 4.9 20.1 4 19 4ZM19 20H5V9H19V20ZM6.5 13C6.5 11.62 7.62 10.5 9 10.5C10.38 10.5 11.5 11.62 11.5 13C11.5 14.38 10.38 15.5 9 15.5C7.62 15.5 6.5 14.38 6.5 13Z" fill="#49454E"/>
</svg>

<svg id="login-email-icon" xmlns="http://www.w3.org/2000/svg" width="24" height="25" viewBox="0 0 24 25" fill="none">
  <mask id="mask0_900_532" style="mask-type:alpha" maskUnits="userSpaceOnUse" x="0" y="0" width="24" height="25">
    <rect y="0.5" width="24" height="24" fill="#D9D9D9"/>
  </mask>
  <g mask="url(#mask0_900_532)">
    <path d="M4 20.5C3.45 20.5 2.97917 20.3042 2.5875 19.9125C2.19583 19.5208 2 19.05 2 18.5V6.5C2 5.95 2.19583 5.47917 2.5875 5.0875C2.97917 4.69583 3.45 4.5 4 4.5H20C20.55 4.5 21.0208 4.69583 21.4125 5.0875C21.8042 5.47917 22 5.95 22 6.5V18.5C22 19.05 21.8042 19.5208 21.4125 19.9125C21.0208 20.3042 20.55 20.5 20 20.5H4ZM12 13.5L4 8.5V18.5H20V8.5L12 13.5ZM12 11.5L20 6.5H4L12 11.5ZM4 8.5V6.5V18.5V8.5Z" fill="#282828"/>
  </g>
</svg>

<symbol id="login-password-icon" xmlns="http://www.w3.org/2000/svg" width="24" height="25" viewBox="0 0 24 25" fill="none">
  <mask id="mask0_900_575" style="mask-type:alpha" maskUnits="userSpaceOnUse" x="0" y="0" width="24" height="25">
    <rect y="0.5" width="24" height="24" fill="#D9D9D9"/>
  </mask>
  <g mask="url(#mask0_900_575)">
    <path d="M4 17.5V19.5H20V17.5H4ZM4 6.5H6.2C6.11667 6.35 6.0625 6.19167 6.0375 6.025C6.0125 5.85833 6 5.68333 6 5.5C6 4.66667 6.29167 3.95833 6.875 3.375C7.45833 2.79167 8.16667 2.5 9 2.5C9.5 2.5 9.9625 2.62917 10.3875 2.8875C10.8125 3.14583 11.1833 3.46667 11.5 3.85L12 4.5L12.5 3.85C12.8 3.45 13.1667 3.125 13.6 2.875C14.0333 2.625 14.5 2.5 15 2.5C15.8333 2.5 16.5417 2.79167 17.125 3.375C17.7083 3.95833 18 4.66667 18 5.5C18 5.68333 17.9875 5.85833 17.9625 6.025C17.9375 6.19167 17.8833 6.35 17.8 6.5H20C20.55 6.5 21.0208 6.69583 21.4125 7.0875C21.8042 7.47917 22 7.95 22 8.5V19.5C22 20.05 21.8042 20.5208 21.4125 20.9125C21.0208 21.3042 20.55 21.5 20 21.5H4C3.45 21.5 2.97917 21.3042 2.5875 20.9125C2.19583 20.5208 2 20.05 2 19.5V8.5C2 7.95 2.19583 7.47917 2.5875 7.0875C2.97917 6.69583 3.45 6.5 4 6.5ZM4 14.5H20V8.5H14.9L17 11.35L15.4 12.5L12 7.9L8.6 12.5L7 11.35L9.05 8.5H4V14.5ZM9 6.5C9.28333 6.5 9.52083 6.40417 9.7125 6.2125C9.90417 6.02083 10 5.78333 10 5.5C10 5.21667 9.90417 4.97917 9.7125 4.7875C9.52083 4.59583 9.28333 4.5 9 4.5C8.71667 4.5 8.47917 4.59583 8.2875 4.7875C8.09583 4.97917 8 5.21667 8 5.5C8 5.78333 8.09583 6.02083 8.2875 6.2125C8.47917 6.40417 8.71667 6.5 9 6.5ZM15 6.5C15.2833 6.5 15.5208 6.40417 15.7125 6.2125C15.9042 6.02083 16 5.78333 16 5.5C16 5.21667 15.9042 4.97917 15.7125 4.7875C15.5208 4.59583 15.2833 4.5 15 4.5C14.7167 4.5 14.4792 4.59583 14.2875 4.7875C14.0958 4.97917 14 5.21667 14 5.5C14 5.78333 14.0958 6.02083 14.2875 6.2125C14.4792 6.40417 14.7167 6.5 15 6.5Z" fill="#282828"/>
  </g>
</symbol>

</svg>
