<svg width="18" height="18" viewBox="0 0 18 18" fill="none" xmlns="http://www.w3.org/2000/svg">
<path d="M8.50776 1.14609C7.46011 1.27969 6.57065 1.71562 5.83237 2.45742C4.99917 3.29414 4.57026 4.25039 4.51401 5.41406C4.45776 6.54258 4.85503 7.70977 5.58276 8.54297L5.71987 8.69766L5.36479 8.9332C4.68628 9.38672 4.18354 9.89297 3.70893 10.5996C2.8019 11.9566 2.28862 13.834 2.27104 15.8625C2.26753 16.5832 2.27456 16.6078 2.5101 16.7836L2.60503 16.8574H8.99995H15.3949L15.4898 16.7836C15.6867 16.6395 15.7324 16.541 15.7464 16.2316C15.7605 15.859 15.6902 14.8289 15.6093 14.2734C15.2507 11.816 14.2347 9.99492 12.6351 8.9332L12.28 8.69766L12.4171 8.54297C13.1414 7.71328 13.5386 6.56016 13.4859 5.43164C13.4332 4.26094 13.0007 3.28711 12.1675 2.45742C11.5171 1.80703 10.8316 1.42734 9.94917 1.22695C9.65737 1.16016 8.7855 1.11094 8.50776 1.14609ZM9.81206 2.35195C10.4414 2.51367 10.9335 2.79844 11.3906 3.26602C11.8441 3.72305 12.1359 4.24336 12.2941 4.87266C12.3785 5.20664 12.3785 6.04336 12.2941 6.37734C12.1324 7.01719 11.8546 7.51289 11.3906 7.98047C10.9089 8.46914 10.4062 8.75742 9.75229 8.91914C9.40776 9.00352 8.61323 9.00352 8.26167 8.91914C6.98198 8.60977 6.02573 7.65703 5.70581 6.37734C5.62143 6.04336 5.62143 5.20664 5.70581 4.87266C5.86753 4.23281 6.15581 3.71953 6.62339 3.24844C7.17886 2.69648 7.69565 2.43633 8.57807 2.27109C8.7855 2.23242 9.5519 2.28164 9.81206 2.35195ZM7.01011 9.65039C7.68862 9.98437 8.22651 10.1074 8.99995 10.1074C9.77339 10.1074 10.3113 9.98437 10.9898 9.64687L11.3097 9.49219L11.4644 9.55547C11.5488 9.59414 11.7316 9.68906 11.8652 9.77344C13.0042 10.4695 13.7742 11.5629 14.2242 13.1203C14.414 13.7848 14.516 14.4211 14.6074 15.5461L14.6249 15.75H8.99995H3.37846L3.39604 15.4934C3.5894 12.7336 4.41557 10.916 5.94136 9.89648C6.14175 9.76289 6.63393 9.49219 6.67612 9.49219C6.68667 9.49219 6.83784 9.5625 7.01011 9.65039Z" fill="black"/>
</svg>
