<svg width="20" height="17" viewBox="0 0 20 17" fill="none" xmlns="http://www.w3.org/2000/svg">
<path d="M2 16.5C1.45 16.5 0.979167 16.3042 0.5875 15.9125C0.195833 15.5208 0 15.05 0 14.5V2.5C0 1.95 0.195833 1.47917 0.5875 1.0875C0.979167 0.695833 1.45 0.5 2 0.5H18C18.55 0.5 19.0208 0.695833 19.4125 1.0875C19.8042 1.47917 20 1.95 20 2.5V14.5C20 15.05 19.8042 15.5208 19.4125 15.9125C19.0208 16.3042 18.55 16.5 18 16.5H2ZM10 9.5L2 4.5V14.5H18V4.5L10 9.5ZM10 7.5L18 2.5H2L10 7.5ZM2 4.5V2.5V14.5V4.5Z" fill="#282828"/>
</svg>
