<svg width="20" height="20" viewBox="0 0 20 20" fill="none" xmlns="http://www.w3.org/2000/svg">
<path d="M2 15.5V17.5H18V15.5H2ZM2 4.5H4.2C4.11667 4.35 4.0625 4.19167 4.0375 4.025C4.0125 3.85833 4 3.68333 4 3.5C4 2.66667 4.29167 1.95833 4.875 1.375C5.45833 0.791667 6.16667 0.5 7 0.5C7.5 0.5 7.9625 0.629167 8.3875 0.8875C8.8125 1.14583 9.18333 1.46667 9.5 1.85L10 2.5L10.5 1.85C10.8 1.45 11.1667 1.125 11.6 0.875C12.0333 0.625 12.5 0.5 13 0.5C13.8333 0.5 14.5417 0.791667 15.125 1.375C15.7083 1.95833 16 2.66667 16 3.5C16 3.68333 15.9875 3.85833 15.9625 4.025C15.9375 4.19167 15.8833 4.35 15.8 4.5H18C18.55 4.5 19.0208 4.69583 19.4125 5.0875C19.8042 5.47917 20 5.95 20 6.5V17.5C20 18.05 19.8042 18.5208 19.4125 18.9125C19.0208 19.3042 18.55 19.5 18 19.5H2C1.45 19.5 0.979167 19.3042 0.5875 18.9125C0.195833 18.5208 0 18.05 0 17.5V6.5C0 5.95 0.195833 5.47917 0.5875 5.0875C0.979167 4.69583 1.45 4.5 2 4.5ZM2 12.5H18V6.5H12.9L15 9.35L13.4 10.5L10 5.9L6.6 10.5L5 9.35L7.05 6.5H2V12.5ZM7 4.5C7.28333 4.5 7.52083 4.40417 7.7125 4.2125C7.90417 4.02083 8 3.78333 8 3.5C8 3.21667 7.90417 2.97917 7.7125 2.7875C7.52083 2.59583 7.28333 2.5 7 2.5C6.71667 2.5 6.47917 2.59583 6.2875 2.7875C6.09583 2.97917 6 3.21667 6 3.5C6 3.78333 6.09583 4.02083 6.2875 4.2125C6.47917 4.40417 6.71667 4.5 7 4.5ZM13 4.5C13.2833 4.5 13.5208 4.40417 13.7125 4.2125C13.9042 4.02083 14 3.78333 14 3.5C14 3.21667 13.9042 2.97917 13.7125 2.7875C13.5208 2.59583 13.2833 2.5 13 2.5C12.7167 2.5 12.4792 2.59583 12.2875 2.7875C12.0958 2.97917 12 3.21667 12 3.5C12 3.78333 12.0958 4.02083 12.2875 4.2125C12.4792 4.40417 12.7167 4.5 13 4.5Z" fill="#282828"/>
</svg>
